<svg width="28" height="28" viewBox="0 0 28 28" fill="none" xmlns="http://www.w3.org/2000/svg">
<g clip-path="url(#clip0_20_380)">
<path d="M3.68336 6.89933C4.39563 6.40149 5.46934 6.49697 6.10887 7.02512L5.37538 5.95896C4.7851 5.1171 4.99651 4.20628 5.83911 3.61523C6.68171 3.02646 9.06933 4.60941 9.06933 4.60941C8.47376 3.7592 8.58514 2.68168 9.43532 2.08533C10.2855 1.49124 11.4584 1.6966 12.054 2.54831L19.9496 13.7024L18.9433 23.4585L10.5454 20.3956L3.22039 9.53481C2.6195 8.6793 2.82712 7.49947 3.68336 6.89933Z" fill="#EF9645"/>
<path d="M2.04211 13.1046C2.04211 13.1046 1.18436 11.8543 2.43537 10.9973C3.68488 10.1403 4.54188 11.3898 4.54188 11.3898L8.52073 17.1927C8.65788 16.9639 8.80791 16.7381 8.97537 16.5153L3.45301 8.46261C3.45301 8.46261 2.59601 7.21307 3.84627 6.35605C5.09578 5.49904 5.95277 6.74856 5.95277 6.74856L11.147 14.3239C11.3403 14.1662 11.538 14.0078 11.7418 13.8525L5.72014 5.06938C5.72014 5.06938 4.86315 3.81985 6.11341 2.96283C7.36292 2.10581 8.21992 3.35534 8.21992 3.35534L14.2416 12.137C14.4628 12.0013 14.6818 11.8838 14.9016 11.7596L9.27315 3.55161C9.27315 3.55161 8.41616 2.30207 9.66566 1.44505C10.9152 0.588026 11.7721 1.83756 11.7721 1.83756L17.7234 10.5169L18.6282 11.8368C14.8789 14.4087 14.522 19.247 16.6641 22.3712C17.0923 22.9964 17.7173 22.5683 17.7173 22.5683C15.1464 18.8181 15.9313 14.6042 19.6814 12.0331L18.5758 6.50003C18.5758 6.50003 18.1629 5.04211 19.6201 4.62837C21.0779 4.21539 21.4916 5.67331 21.4916 5.67331L22.7684 9.46512C23.2745 10.9685 23.8133 12.4666 24.5264 13.8836C26.5397 17.8846 25.3371 22.857 21.5408 25.4613C17.3998 28.3006 11.7389 27.245 8.89884 23.1047L2.04211 13.1046Z" fill="#FFDC5D"/>
<path d="M9.09281 24.2401C6.06188 24.2401 2.99912 21.1808 2.99912 18.1534C2.99912 17.7348 2.69223 17.3965 2.2732 17.3965C1.85419 17.3965 1.48364 17.7348 1.48364 18.1534C1.48364 22.6945 4.54641 25.7537 9.09281 25.7537C9.51184 25.7537 9.85055 25.3836 9.85055 24.9652C9.85055 24.5466 9.51184 24.2401 9.09281 24.2401Z" fill="#737380"/>
<path d="M5.30415 25.7311C3.03095 25.7311 1.51548 24.2155 1.51548 21.9424C1.51548 21.5233 1.17677 21.1846 0.757749 21.1846C0.338722 21.1846 1.52588e-05 21.5233 1.52588e-05 21.9424C1.52588e-05 24.9733 2.27322 27.2466 5.30415 27.2466C5.72318 27.2466 6.06188 26.9078 6.06188 26.4888C6.06188 26.0698 5.72318 25.7311 5.30415 25.7311ZM18.1856 1.48297C17.7674 1.48297 17.4278 1.82245 17.4278 2.24073C17.4278 2.65901 17.7674 2.99848 18.1856 2.99848C21.2166 2.99848 24.2475 5.71806 24.2475 9.06051C24.2475 9.47879 24.587 9.81826 25.0052 9.81826C25.4235 9.81826 25.7629 9.47879 25.7629 9.06051C25.7629 4.88226 22.7321 1.48297 18.1856 1.48297Z" fill="#737380"/>
<path d="M21.9743 0C21.556 0 21.2166 0.307289 21.2166 0.725082C21.2166 1.14287 21.556 1.51374 21.9743 1.51374C24.2476 1.51374 25.7311 3.19777 25.7311 5.2663C25.7311 5.68409 26.1017 6.02318 26.5207 6.02318C26.9397 6.02318 27.2466 5.68409 27.2466 5.2663C27.2466 2.36219 25.0052 0 21.9743 0Z" fill="#737380"/>
</g>
<defs>
<clipPath id="clip0_20_380">
<rect width="27.2466" height="27.2466" fill="white"/>
</clipPath>
</defs>
</svg>
