<svg width="62" height="50" viewBox="0 0 62 50" fill="none" xmlns="http://www.w3.org/2000/svg">
<path d="M14.9689 49.3022C11.6296 49.3022 8.97185 48.5015 6.99556 46.9C5.01926 45.2985 4.03111 42.76 4.03111 39.2844V31.4644C4.03111 30.4081 3.70741 29.6244 3.06 29.1133C2.41259 28.6022 1.45852 28.3467 0.197778 28.3467V21.0889C1.45852 21.0889 2.41259 20.8333 3.06 20.3222C3.70741 19.8111 4.03111 19.0274 4.03111 17.9711V10.3044C4.03111 6.82889 5.01926 4.30741 6.99556 2.74C8.97185 1.13852 11.6296 0.33778 14.9689 0.33778H16.2467V7.13556H14.9689C13.8444 7.13556 13.0267 7.40815 12.5156 7.95333C12.0385 8.49852 11.8 9.29926 11.8 10.3556V18.2267C11.8 20.237 11.357 21.7193 10.4711 22.6733C9.58518 23.6274 8.27333 24.1896 6.53556 24.36V25.0756C8.27333 25.2119 9.58518 25.757 10.4711 26.7111C11.357 27.6652 11.8 29.1474 11.8 31.1578V39.2844C11.8 40.3067 12.0385 41.0904 12.5156 41.6356C13.0267 42.2148 13.8444 42.5044 14.9689 42.5044H16.2467V49.3022H14.9689ZM46.8333 49.3022C50.1725 49.3022 52.8303 48.5015 54.8066 46.9C56.7829 45.2985 57.771 42.76 57.771 39.2844V31.4644C57.771 30.4081 58.0948 29.6244 58.7422 29.1133C59.3896 28.6022 60.3436 28.3467 61.6044 28.3467V21.0889C60.3436 21.0889 59.3896 20.8333 58.7422 20.3222C58.0948 19.8111 57.771 19.0274 57.771 17.9711V10.3044C57.771 6.82889 56.7829 4.30741 54.8066 2.74C52.8303 1.13852 50.1725 0.33778 46.8333 0.33778H45.5555V7.13556H46.8333C47.9577 7.13556 48.7585 7.40815 49.2355 7.95333C49.7466 8.49852 50.0022 9.29926 50.0022 10.3556V18.2267C50.0022 20.237 50.4451 21.7193 51.331 22.6733C52.217 23.6274 53.5288 24.1896 55.2666 24.36V25.0756C53.5288 25.2119 52.217 25.757 51.331 26.7111C50.4451 27.6652 50.0022 29.1474 50.0022 31.1578V39.2844C50.0022 40.3067 49.7466 41.0904 49.2355 41.6356C48.7585 42.2148 47.9577 42.5044 46.8333 42.5044H45.5555V49.3022H46.8333Z" fill="url(#paint0_linear_35_2)"/>
<path d="M21.8371 40V6.42H29.3811V40H21.8371ZM28.4611 40V33.376H42.5371V40H28.4611Z" fill="#F2F2F2"/>
<defs>
<linearGradient id="paint0_linear_35_2" x1="31" y1="-9" x2="31" y2="55" gradientUnits="userSpaceOnUse">
<stop stop-color="#1979E8"/>
<stop offset="1" stop-color="#03A3FF"/>
</linearGradient>
</defs>
</svg>
