<svg width="50" height="50" viewBox="0 0 50 50" fill="none" xmlns="http://www.w3.org/2000/svg">
<g clip-path="url(#clip0_4_61)">
<path d="M6.7593 12.6609C8.06638 11.7473 10.0367 11.9225 11.2103 12.8918L9.8643 10.9353C8.78109 9.39036 9.16905 7.71892 10.7153 6.6343C12.2615 5.55384 16.643 8.45869 16.643 8.45869C15.5501 6.89849 15.7545 4.92113 17.3147 3.82678C18.8748 2.73657 21.0273 3.11342 22.1202 4.6764L36.6094 25.1452L34.7627 43.0485L19.3518 37.4279L5.90969 17.4973C4.80701 15.9273 5.18801 13.7622 6.7593 12.6609Z" fill="#EF9645"/>
<path d="M3.74745 24.0481C3.74745 24.0481 2.17339 21.7538 4.46912 20.181C6.76208 18.6083 8.33474 20.9013 8.33474 20.9013L15.6363 31.5502C15.888 31.1302 16.1633 30.7159 16.4706 30.3071L6.33658 15.5297C6.33658 15.5297 4.76391 13.2366 7.05824 11.6639C9.3512 10.0912 10.9239 12.3842 10.9239 12.3842L20.4558 26.2856C20.8104 25.9963 21.1733 25.7056 21.5473 25.4206L10.497 9.30277C10.497 9.30277 8.9243 7.00977 11.2187 5.43706C13.5116 3.86435 15.0843 6.15735 15.0843 6.15735L26.1346 22.2725C26.5406 22.0236 26.9425 21.8079 27.3458 21.58L17.0171 6.51752C17.0171 6.51752 15.4444 4.2245 17.7374 2.65179C20.0303 1.07907 21.6029 3.37208 21.6029 3.37208L32.524 19.2994L34.1844 21.7217C27.3042 26.4413 26.6492 35.32 30.5802 41.0531C31.3658 42.2004 32.5129 41.4148 32.5129 41.4148C27.795 34.5329 29.2354 26.8 36.1171 22.0819L34.0883 11.9281C34.0883 11.9281 33.3306 9.25273 36.0046 8.49348C38.6798 7.73562 39.439 10.411 39.439 10.411L41.7821 17.3694C42.7108 20.1282 43.6996 22.8773 45.0081 25.4777C48.7027 32.8198 46.4958 41.9446 39.5294 46.7238C31.9302 51.9342 21.5419 49.9971 16.3302 42.3992L3.74745 24.0481Z" fill="#FFDC5D"/>
<path d="M16.6861 44.4827C11.1241 44.4827 5.50365 38.8688 5.50365 33.3132C5.50365 32.545 4.94049 31.9242 4.17153 31.9242C3.40259 31.9242 2.72261 32.545 2.72261 33.3132C2.72261 41.6465 8.34307 47.2604 16.6861 47.2604C17.4551 47.2604 18.0767 46.5813 18.0767 45.8134C18.0767 45.0452 17.4551 44.4827 16.6861 44.4827Z" fill="#737380"/>
<path d="M9.7336 47.2189C5.56206 47.2189 2.78104 44.4377 2.78104 40.2662C2.78104 39.4973 2.15947 38.8756 1.39053 38.8756C0.621574 38.8756 1.52588e-05 39.4973 1.52588e-05 40.2662C1.52588e-05 45.8283 4.17156 50 9.7336 50C10.5026 50 11.1241 49.3783 11.1241 48.6094C11.1241 47.8404 10.5026 47.2189 9.7336 47.2189ZM33.3723 2.72137C32.6048 2.72137 31.9817 3.34435 31.9817 4.11194C31.9817 4.87952 32.6048 5.50248 33.3723 5.50248C38.9344 5.50248 44.4965 10.4931 44.4965 16.6269C44.4965 17.3944 45.1194 18.0174 45.8869 18.0174C46.6544 18.0174 47.2773 17.3944 47.2773 16.6269C47.2773 8.95937 41.7154 2.72137 33.3723 2.72137Z" fill="#737380"/>
<path d="M40.3248 0C39.5573 0 38.9344 0.563904 38.9344 1.33059C38.9344 2.09727 39.5573 2.77785 40.3248 2.77785C44.4965 2.77785 47.219 5.86821 47.219 9.66415C47.219 10.4308 47.899 11.0531 48.6679 11.0531C49.4369 11.0531 50 10.4308 50 9.66415C50 4.33483 45.8869 0 40.3248 0Z" fill="#737380"/>
</g>
<defs>
<clipPath id="clip0_4_61">
<rect width="50" height="50" fill="white"/>
</clipPath>
</defs>
</svg>
