<svg width="374" height="50" viewBox="0 0 374 50" fill="none" xmlns="http://www.w3.org/2000/svg">
<path d="M14.9689 49.3022C11.6296 49.3022 8.97185 48.5015 6.99556 46.9C5.01926 45.2985 4.03111 42.76 4.03111 39.2844V31.4644C4.03111 30.4081 3.70741 29.6244 3.06 29.1133C2.41259 28.6022 1.45852 28.3467 0.197778 28.3467V21.0889C1.45852 21.0889 2.41259 20.8333 3.06 20.3222C3.70741 19.8111 4.03111 19.0274 4.03111 17.9711V10.3044C4.03111 6.82889 5.01926 4.30741 6.99556 2.74C8.97185 1.13852 11.6296 0.33778 14.9689 0.33778H16.2467V7.13556H14.9689C13.8444 7.13556 13.0267 7.40815 12.5156 7.95333C12.0385 8.49852 11.8 9.29926 11.8 10.3556V18.2267C11.8 20.237 11.357 21.7193 10.4711 22.6733C9.58518 23.6274 8.27333 24.1896 6.53556 24.36V25.0756C8.27333 25.2119 9.58518 25.757 10.4711 26.7111C11.357 27.6652 11.8 29.1474 11.8 31.1578V39.2844C11.8 40.3067 12.0385 41.0904 12.5156 41.6356C13.0267 42.2148 13.8444 42.5044 14.9689 42.5044H16.2467V49.3022H14.9689ZM358.559 49.3022C361.898 49.3022 364.556 48.5015 366.532 46.9C368.509 45.2985 369.497 42.76 369.497 39.2844V31.4644C369.497 30.4081 369.821 29.6244 370.468 29.1133C371.115 28.6022 372.07 28.3467 373.33 28.3467V21.0889C372.07 21.0889 371.115 20.8333 370.468 20.3222C369.821 19.8111 369.497 19.0274 369.497 17.9711V10.3044C369.497 6.82889 368.509 4.30741 366.532 2.74C364.556 1.13852 361.898 0.33778 358.559 0.33778H357.281V7.13556H358.559C359.684 7.13556 360.484 7.40815 360.961 7.95333C361.472 8.49852 361.728 9.29926 361.728 10.3556V18.2267C361.728 20.237 362.171 21.7193 363.057 22.6733C363.943 23.6274 365.255 24.1896 366.992 24.36V25.0756C365.255 25.2119 363.943 25.757 363.057 26.7111C362.171 27.6652 361.728 29.1474 361.728 31.1578V39.2844C361.728 40.3067 361.472 41.0904 360.961 41.6356C360.484 42.2148 359.684 42.5044 358.559 42.5044H357.281V49.3022H358.559Z" fill="url(#paint0_linear_4_25)"/>
<path d="M27.6784 40.4667C24.9718 40.4667 23.0429 39.8911 21.8918 38.74C20.7407 37.5889 20.1651 35.7844 20.1651 33.3267V8.54667H28.9384V32.3467C28.9384 33.0311 29.0784 33.4978 29.3584 33.7467C29.6384 33.9644 30.074 34.0733 30.6651 34.0733C31.0695 34.0733 31.4584 34.0422 31.8318 33.98C32.2362 33.9178 32.6095 33.8244 32.9518 33.7V39.5333C32.1429 39.8444 31.3495 40.0778 30.5718 40.2333C29.8251 40.3889 28.8607 40.4667 27.6784 40.4667ZM41.9092 40.4667C39.327 40.4667 37.3048 39.7356 35.8425 38.2733C34.3803 36.8111 33.6492 34.6644 33.6492 31.8333V17.88H42.4225V31.1333C42.4225 33.0622 43.4025 34.0267 45.3625 34.0267C46.0781 34.0267 46.7781 33.8711 47.4625 33.56C48.147 33.2489 48.6914 32.86 49.0959 32.3933V17.88H57.8692V40H49.6559L49.4225 38.32C48.5514 38.9422 47.4781 39.4556 46.2025 39.86C44.9581 40.2644 43.527 40.4667 41.9092 40.4667ZM63.5866 14.94V8.59333H73.0599V14.94H63.5866ZM64.2866 40V24.2733H61.0666L61.8133 17.88H73.0599V40H64.2866ZM76.3346 40V35.1933L85.6213 24.6H76.6613V17.88H96.7746V22.8267L87.768 33.28H97.1013V40H76.3346ZM101.587 40V24.3667H98.7401V17.88H101.587V16.4333C101.587 13.9444 102.302 11.8911 103.733 10.2733C105.165 8.62444 107.311 7.8 110.173 7.8C111.387 7.8 112.46 7.89333 113.393 8.08C114.358 8.26667 115.26 8.53111 116.1 8.87333V14.5667C115.633 14.4111 115.167 14.2867 114.7 14.1933C114.265 14.1 113.798 14.0533 113.3 14.0533C112.18 14.0533 111.402 14.2556 110.967 14.66C110.562 15.0644 110.36 15.7178 110.36 16.62V17.88H115.587L115.213 24.3667H110.36V40H101.587ZM117.372 40V17.88H125.819L126.052 19.6533C126.954 19.1244 128.105 18.6422 129.505 18.2067C130.905 17.7711 132.321 17.5067 133.752 17.4133V23.9467C132.943 24.0089 132.057 24.1178 131.092 24.2733C130.159 24.4289 129.241 24.6311 128.339 24.88C127.468 25.0978 126.737 25.3467 126.145 25.6267V40H117.372ZM141.733 40.4667C140.333 40.4667 139.027 40.2178 137.813 39.72C136.631 39.2222 135.682 38.4444 134.967 37.3867C134.251 36.3289 133.893 34.9911 133.893 33.3733C133.893 31.04 134.671 29.2356 136.227 27.96C137.782 26.6533 140.131 26 143.273 26H149.013V25.58C149.013 24.7089 148.655 24.0711 147.94 23.6667C147.224 23.2622 145.964 23.06 144.16 23.06C141.609 23.06 139.089 23.4489 136.6 24.2267V18.9533C137.72 18.5178 139.12 18.16 140.8 17.88C142.48 17.5689 144.191 17.4133 145.933 17.4133C149.449 17.4133 152.233 18.1289 154.287 19.56C156.34 20.9911 157.367 23.2622 157.367 26.3733V40H149.713L149.293 38.2267C148.515 38.9111 147.504 39.4556 146.26 39.86C145.047 40.2644 143.538 40.4667 141.733 40.4667ZM144.72 35.3333C145.715 35.3333 146.555 35.1622 147.24 34.82C147.955 34.4778 148.547 34.0578 149.013 33.56V30.8067H144.767C142.838 30.8067 141.873 31.5689 141.873 33.0933C141.873 34.5867 142.822 35.3333 144.72 35.3333ZM161.35 40V17.88H169.563L169.797 19.56C170.637 19 171.741 18.5022 173.11 18.0667C174.51 17.6311 176.003 17.4133 177.59 17.4133C180.359 17.4133 182.381 18.0978 183.657 19.4667C184.932 20.8356 185.57 22.9511 185.57 25.8133V40H176.797V26.7C176.797 25.7044 176.579 24.9889 176.143 24.5533C175.708 24.1178 174.946 23.9 173.857 23.9C173.203 23.9 172.519 24.0556 171.803 24.3667C171.119 24.6778 170.559 25.0511 170.123 25.4867V40H161.35ZM188.581 40V35.1933L197.867 24.6H188.907V17.88H209.021V22.8267L200.014 33.28H209.347V40H188.581ZM223.701 40.4667C219.284 40.4667 216.017 39.4867 213.901 37.5267C211.817 35.5667 210.775 32.7044 210.775 28.94C210.775 25.2067 211.833 22.36 213.948 20.4C216.064 18.4089 219.315 17.4133 223.701 17.4133C228.119 17.4133 231.386 18.4089 233.501 20.4C235.648 22.36 236.721 25.2067 236.721 28.94C236.721 32.7044 235.664 35.5667 233.548 37.5267C231.433 39.4867 228.15 40.4667 223.701 40.4667ZM223.701 34.0733C225.133 34.0733 226.159 33.6689 226.781 32.86C227.435 32.0511 227.761 30.7444 227.761 28.94C227.761 27.1667 227.435 25.8756 226.781 25.0667C226.159 24.2267 225.133 23.8067 223.701 23.8067C222.301 23.8067 221.29 24.2267 220.668 25.0667C220.046 25.8756 219.735 27.1667 219.735 28.94C219.735 30.7444 220.046 32.0511 220.668 32.86C221.29 33.6689 222.301 34.0733 223.701 34.0733ZM240.009 40V17.88H248.222L248.456 19.56C249.296 19 250.4 18.5022 251.769 18.0667C253.169 17.6311 254.662 17.4133 256.249 17.4133C259.018 17.4133 261.04 18.0978 262.316 19.4667C263.591 20.8356 264.229 22.9511 264.229 25.8133V40H255.456V26.7C255.456 25.7044 255.238 24.9889 254.802 24.5533C254.367 24.1178 253.604 23.9 252.516 23.9C251.862 23.9 251.178 24.0556 250.462 24.3667C249.778 24.6778 249.218 25.0511 248.782 25.4867V40H240.009ZM267.24 40V33.7H274.146V40H267.24ZM286.804 40.4667C284.72 40.4667 282.9 40.1244 281.344 39.44C279.82 38.7244 278.622 37.5733 277.751 35.9867C276.911 34.4 276.491 32.2844 276.491 29.64C276.491 26.9333 276.973 24.6778 277.938 22.8733C278.902 21.0689 280.193 19.7156 281.811 18.8133C283.429 17.88 285.186 17.4133 287.084 17.4133C288.111 17.4133 289.122 17.5222 290.118 17.74C291.144 17.9578 292.031 18.2689 292.778 18.6733V8.54667H301.551V40H293.944L293.524 38.2733C292.653 38.9578 291.673 39.5022 290.584 39.9067C289.526 40.28 288.266 40.4667 286.804 40.4667ZM289.324 34.12C290.662 34.12 291.813 33.6689 292.778 32.7667V24.9267C291.906 24.1489 290.755 23.76 289.324 23.76C288.173 23.76 287.24 24.2733 286.524 25.3C285.809 26.3267 285.451 27.7889 285.451 29.6867C285.451 31.5533 285.762 32.7667 286.384 33.3267C287.006 33.8556 287.986 34.12 289.324 34.12ZM317.495 40.4667C314.913 40.4667 312.626 40.0467 310.635 39.2067C308.675 38.3356 307.135 37.0444 306.015 35.3333C304.926 33.6222 304.381 31.5067 304.381 28.9867C304.381 25.4711 305.377 22.6711 307.368 20.5867C309.359 18.4711 312.33 17.4133 316.281 17.4133C319.89 17.4133 322.706 18.3311 324.728 20.1667C326.781 22.0022 327.808 24.5067 327.808 27.68V31.5533H312.455C312.859 32.7356 313.653 33.5756 314.835 34.0733C316.017 34.5711 317.619 34.82 319.641 34.82C320.917 34.82 322.193 34.7111 323.468 34.4933C324.775 34.2444 325.817 33.9644 326.595 33.6533V38.9267C324.417 39.9533 321.384 40.4667 317.495 40.4667ZM312.455 26.7933H320.248V26C320.248 25.1289 319.968 24.4133 319.408 23.8533C318.879 23.2933 317.93 23.0133 316.561 23.0133C315.037 23.0133 313.964 23.34 313.341 23.9933C312.75 24.6156 312.455 25.5489 312.455 26.7933ZM336.305 40L327.578 17.88H336.725L340.925 30.8533L345.125 17.88H354.271L345.545 40H336.305Z" fill="white"/>
<defs>
<linearGradient id="paint0_linear_4_25" x1="187" y1="-11" x2="187" y2="59" gradientUnits="userSpaceOnUse">
<stop stop-color="#1979E8"/>
<stop offset="1" stop-color="#03A3FF"/>
</linearGradient>
</defs>
</svg>
