<svg width="260" height="40" viewBox="0 0 260 40" fill="none" xmlns="http://www.w3.org/2000/svg">
<path d="M11.616 38.916C9.13333 38.916 7.15733 38.3207 5.688 37.13C4.21867 35.9393 3.484 34.052 3.484 31.468V25.654C3.484 24.8687 3.24333 24.286 2.762 23.906C2.28067 23.526 1.57133 23.336 0.634 23.336V17.94C1.57133 17.94 2.28067 17.75 2.762 17.37C3.24333 16.99 3.484 16.4073 3.484 15.622V9.922C3.484 7.338 4.21867 5.46333 5.688 4.298C7.15733 3.10733 9.13333 2.512 11.616 2.512H12.566V7.566H11.616C10.78 7.566 10.172 7.76867 9.792 8.174C9.43733 8.57933 9.26 9.17467 9.26 9.96V15.812C9.26 17.3067 8.93067 18.4087 8.272 19.118C7.61333 19.8273 6.638 20.2453 5.346 20.372V20.904C6.638 21.0053 7.61333 21.4107 8.272 22.12C8.93067 22.8293 9.26 23.9313 9.26 25.426V31.468C9.26 32.228 9.43733 32.8107 9.792 33.216C10.172 33.6467 10.78 33.862 11.616 33.862H12.566V38.916H11.616ZM247.744 39.4073C250.403 39.4073 252.52 38.7697 254.094 37.4944C255.667 36.2192 256.454 34.1978 256.454 31.4302V25.2032C256.454 24.362 256.712 23.738 257.227 23.331C257.743 22.924 258.503 22.7205 259.507 22.7205V16.9412C258.503 16.9412 257.743 16.7377 257.227 16.3307C256.712 15.9237 256.454 15.2996 256.454 14.4585V8.35354C256.454 5.58597 255.667 3.57812 254.094 2.33C252.52 1.05475 250.403 0.417121 247.744 0.417121H246.727V5.83017H247.744C248.64 5.83017 249.277 6.04723 249.657 6.48136C250.064 6.91549 250.268 7.55312 250.268 8.39424V14.662C250.268 16.2628 250.62 17.4431 251.326 18.2028C252.031 18.9626 253.076 19.4103 254.46 19.5459V20.1157C253.076 20.2243 252.031 20.6584 251.326 21.4181C250.62 22.1778 250.268 23.3581 250.268 24.959V31.4302C250.268 32.2442 250.064 32.8683 249.657 33.3024C249.277 33.7636 248.64 33.9943 247.744 33.9943H246.727V39.4073H247.744Z" fill="url(#paint0_linear_20_296)"/>
<path d="M20.51 32.32C18.654 32.32 17.3313 31.9253 16.542 31.136C15.7526 30.3467 15.358 29.1093 15.358 27.424V10.432H21.374V26.752C21.374 27.2213 21.47 27.5413 21.662 27.712C21.854 27.8613 22.1526 27.936 22.558 27.936C22.8353 27.936 23.102 27.9147 23.358 27.872C23.6353 27.8293 23.8913 27.7653 24.126 27.68V31.68C23.5713 31.8933 23.0273 32.0533 22.494 32.16C21.982 32.2667 21.3206 32.32 20.51 32.32ZM30.2682 32.32C28.4976 32.32 27.1109 31.8187 26.1082 30.816C25.1056 29.8133 24.6042 28.3413 24.6042 26.4V16.832H30.6202V25.92C30.6202 27.2427 31.2922 27.904 32.6362 27.904C33.1269 27.904 33.6069 27.7973 34.0762 27.584C34.5456 27.3707 34.9189 27.104 35.1962 26.784V16.832H41.2122V32H35.5802L35.4202 30.848C34.8229 31.2747 34.0869 31.6267 33.2122 31.904C32.3589 32.1813 31.3776 32.32 30.2682 32.32ZM45.1327 14.816V10.464H51.6287V14.816H45.1327ZM45.6127 32V21.216H43.4047L43.9167 16.832H51.6287V32H45.6127ZM53.8742 32V28.704L60.2422 21.44H54.0982V16.832H67.8902V20.224L61.7142 27.392H68.1142V32H53.8742ZM71.19 32V21.28H69.238V16.832H71.19V15.84C71.19 14.1333 71.6806 12.7253 72.662 11.616C73.6433 10.4853 75.1153 9.92 77.078 9.92C77.91 9.92 78.646 9.984 79.286 10.112C79.9473 10.24 80.566 10.4213 81.142 10.656V14.56C80.822 14.4533 80.502 14.368 80.182 14.304C79.8833 14.24 79.5633 14.208 79.222 14.208C78.454 14.208 77.9206 14.3467 77.622 14.624C77.3446 14.9013 77.206 15.3493 77.206 15.968V16.832H80.79L80.534 21.28H77.206V32H71.19ZM82.0142 32V16.832H87.8062L87.9662 18.048C88.5849 17.6853 89.3742 17.3547 90.3342 17.056C91.2942 16.7573 92.2649 16.576 93.2462 16.512V20.992C92.6916 21.0347 92.0836 21.1093 91.4222 21.216C90.7822 21.3227 90.1529 21.4613 89.5342 21.632C88.9369 21.7813 88.4356 21.952 88.0302 22.144V32H82.0142ZM98.719 32.32C97.759 32.32 96.863 32.1493 96.031 31.808C95.2203 31.4667 94.5696 30.9333 94.079 30.208C93.5883 29.4827 93.343 28.5653 93.343 27.456C93.343 25.856 93.8763 24.6187 94.943 23.744C96.0096 22.848 97.6203 22.4 99.775 22.4H103.711V22.112C103.711 21.5147 103.466 21.0773 102.975 20.8C102.484 20.5227 101.62 20.384 100.383 20.384C98.6336 20.384 96.9056 20.6507 95.199 21.184V17.568C95.967 17.2693 96.927 17.024 98.079 16.832C99.231 16.6187 100.404 16.512 101.599 16.512C104.01 16.512 105.919 17.0027 107.327 17.984C108.735 18.9653 109.439 20.5227 109.439 22.656V32H104.191L103.903 30.784C103.37 31.2533 102.676 31.6267 101.823 31.904C100.991 32.1813 99.9563 32.32 98.719 32.32ZM100.767 28.8C101.45 28.8 102.026 28.6827 102.495 28.448C102.986 28.2133 103.391 27.9253 103.711 27.584V25.696H100.799C99.4763 25.696 98.815 26.2187 98.815 27.264C98.815 28.288 99.4656 28.8 100.767 28.8ZM112.17 32V16.832H117.802L117.962 17.984C118.538 17.6 119.296 17.2587 120.234 16.96C121.194 16.6613 122.218 16.512 123.306 16.512C125.205 16.512 126.592 16.9813 127.466 17.92C128.341 18.8587 128.778 20.3093 128.778 22.272V32H122.762V22.88C122.762 22.1973 122.613 21.7067 122.314 21.408C122.016 21.1093 121.493 20.96 120.746 20.96C120.298 20.96 119.829 21.0667 119.338 21.28C118.869 21.4933 118.485 21.7493 118.186 22.048V32H112.17ZM130.843 32V28.704L137.211 21.44H131.067V16.832H144.859V20.224L138.683 27.392H145.083V32H130.843ZM154.926 32.32C151.896 32.32 149.656 31.648 148.206 30.304C146.776 28.96 146.062 26.9973 146.062 24.416C146.062 21.856 146.787 19.904 148.238 18.56C149.688 17.1947 151.918 16.512 154.926 16.512C157.955 16.512 160.195 17.1947 161.646 18.56C163.118 19.904 163.854 21.856 163.854 24.416C163.854 26.9973 163.128 28.96 161.678 30.304C160.227 31.648 157.976 32.32 154.926 32.32ZM154.926 27.936C155.907 27.936 156.611 27.6587 157.038 27.104C157.486 26.5493 157.71 25.6533 157.71 24.416C157.71 23.2 157.486 22.3147 157.038 21.76C156.611 21.184 155.907 20.896 154.926 20.896C153.966 20.896 153.272 21.184 152.846 21.76C152.419 22.3147 152.206 23.2 152.206 24.416C152.206 25.6533 152.419 26.5493 152.846 27.104C153.272 27.6587 153.966 27.936 154.926 27.936ZM166.108 32V16.832H171.74L171.9 17.984C172.476 17.6 173.233 17.2587 174.172 16.96C175.132 16.6613 176.156 16.512 177.244 16.512C179.143 16.512 180.529 16.9813 181.404 17.92C182.279 18.8587 182.716 20.3093 182.716 22.272V32H176.7V22.88C176.7 22.1973 176.551 21.7067 176.252 21.408C175.953 21.1093 175.431 20.96 174.684 20.96C174.236 20.96 173.767 21.0667 173.276 21.28C172.807 21.4933 172.423 21.7493 172.124 22.048V32H166.108ZM184.78 32V27.68H189.516V32H184.78ZM198.196 32.32C196.767 32.32 195.519 32.0853 194.452 31.616C193.407 31.1253 192.586 30.336 191.988 29.248C191.412 28.16 191.124 26.7093 191.124 24.896C191.124 23.04 191.455 21.4933 192.116 20.256C192.778 19.0187 193.663 18.0907 194.772 17.472C195.882 16.832 197.087 16.512 198.388 16.512C199.092 16.512 199.786 16.5867 200.468 16.736C201.172 16.8853 201.78 17.0987 202.292 17.376V10.432H208.308V32H203.092L202.804 30.816C202.207 31.2853 201.535 31.6587 200.788 31.936C200.063 32.192 199.199 32.32 198.196 32.32ZM199.924 27.968C200.842 27.968 201.631 27.6587 202.292 27.04V21.664C201.695 21.1307 200.906 20.864 199.924 20.864C199.135 20.864 198.495 21.216 198.004 21.92C197.514 22.624 197.268 23.6267 197.268 24.928C197.268 26.208 197.482 27.04 197.908 27.424C198.335 27.7867 199.007 27.968 199.924 27.968ZM219.241 32.32C217.471 32.32 215.903 32.032 214.537 31.456C213.193 30.8587 212.137 29.9733 211.369 28.8C210.623 27.6267 210.249 26.176 210.249 24.448C210.249 22.0373 210.932 20.1173 212.297 18.688C213.663 17.2373 215.7 16.512 218.409 16.512C220.884 16.512 222.815 17.1413 224.201 18.4C225.609 19.6587 226.313 21.376 226.313 23.552V26.208H215.785C216.063 27.0187 216.607 27.5947 217.417 27.936C218.228 28.2773 219.327 28.448 220.713 28.448C221.588 28.448 222.463 28.3733 223.337 28.224C224.233 28.0533 224.948 27.8613 225.481 27.648V31.264C223.988 31.968 221.908 32.32 219.241 32.32ZM215.785 22.944H221.129V22.4C221.129 21.8027 220.937 21.312 220.553 20.928C220.191 20.544 219.54 20.352 218.601 20.352C217.556 20.352 216.82 20.576 216.393 21.024C215.988 21.4507 215.785 22.0907 215.785 22.944ZM232.139 32L226.155 16.832H232.427L235.307 25.728L238.187 16.832H244.459L238.475 32H232.139Z" fill="white"/>
<defs>
<linearGradient id="paint0_linear_20_296" x1="130.5" y1="-7" x2="130.5" y2="44" gradientUnits="userSpaceOnUse">
<stop stop-color="#1979E8"/>
<stop offset="1" stop-color="#03A3FF"/>
</linearGradient>
</defs>
</svg>
