<svg width="492" height="94" viewBox="0 0 492 94" fill="none" xmlns="http://www.w3.org/2000/svg">
<path d="M49.948 65.58C46.584 65.58 44.1867 64.8647 42.756 63.434C41.3253 62.0033 40.61 59.7607 40.61 56.706V25.908H51.514V55.488C51.514 56.3387 51.688 56.9187 52.036 57.228C52.384 57.4987 52.9253 57.634 53.66 57.634C54.1627 57.634 54.646 57.5953 55.11 57.518C55.6127 57.4407 56.0767 57.3247 56.502 57.17V64.42C55.4967 64.8067 54.5107 65.0967 53.544 65.29C52.616 65.4833 51.4173 65.58 49.948 65.58ZM67.6348 65.58C64.4255 65.58 61.9122 64.6713 60.0948 62.854C58.2775 61.0367 57.3688 58.3687 57.3688 54.85V37.508H68.2728V53.98C68.2728 56.3773 69.4908 57.576 71.9268 57.576C72.8162 57.576 73.6862 57.3827 74.5368 56.996C75.3875 56.6093 76.0642 56.126 76.5668 55.546V37.508H87.4708V65H77.2628L76.9728 62.912C75.8902 63.6853 74.5562 64.3233 72.9708 64.826C71.4242 65.3287 69.6455 65.58 67.6348 65.58ZM94.5767 33.854V25.966H106.351V33.854H94.5767ZM95.4467 65V45.454H91.4447L92.3727 37.508H106.351V65H95.4467ZM110.421 65V59.026L121.963 45.86H110.827V37.508H135.825V43.656L124.631 56.648H136.231V65H110.421ZM141.806 65V45.57H138.268V37.508H141.806V35.71C141.806 32.6167 142.695 30.0647 144.474 28.054C146.252 26.0047 148.92 24.98 152.478 24.98C153.986 24.98 155.32 25.096 156.48 25.328C157.678 25.56 158.8 25.8887 159.844 26.314V33.39C159.264 33.1967 158.684 33.042 158.104 32.926C157.562 32.81 156.982 32.752 156.364 32.752C154.972 32.752 154.005 33.0033 153.464 33.506C152.961 34.0087 152.71 34.8207 152.71 35.942V37.508H159.206L158.742 45.57H152.71V65H141.806ZM161.424 65V37.508H171.922L172.212 39.712C173.334 39.0547 174.764 38.4553 176.504 37.914C178.244 37.3727 180.004 37.044 181.782 36.928V45.048C180.777 45.1253 179.675 45.2607 178.476 45.454C177.316 45.6473 176.176 45.8987 175.054 46.208C173.972 46.4787 173.063 46.788 172.328 47.136V65H161.424ZM191.702 65.58C189.962 65.58 188.338 65.2707 186.83 64.652C185.36 64.0333 184.181 63.0667 183.292 61.752C182.402 60.4373 181.958 58.7747 181.958 56.764C181.958 53.864 182.924 51.6213 184.858 50.036C186.791 48.412 189.71 47.6 193.616 47.6H200.75V47.078C200.75 45.9953 200.305 45.2027 199.416 44.7C198.526 44.1973 196.96 43.946 194.718 43.946C191.547 43.946 188.415 44.4293 185.322 45.396V38.842C186.714 38.3007 188.454 37.856 190.542 37.508C192.63 37.1213 194.756 36.928 196.922 36.928C201.291 36.928 204.752 37.8173 207.304 39.596C209.856 41.3747 211.132 44.1973 211.132 48.064V65H201.62L201.098 62.796C200.131 63.6467 198.874 64.3233 197.328 64.826C195.82 65.3287 193.944 65.58 191.702 65.58ZM195.414 59.2C196.651 59.2 197.695 58.9873 198.546 58.562C199.435 58.1367 200.17 57.6147 200.75 56.996V53.574H195.472C193.074 53.574 191.876 54.5213 191.876 56.416C191.876 58.272 193.055 59.2 195.414 59.2ZM216.083 65V37.508H226.291L226.581 39.596C227.625 38.9 228.997 38.2813 230.699 37.74C232.439 37.1987 234.295 36.928 236.267 36.928C239.708 36.928 242.221 37.7787 243.807 39.48C245.392 41.1813 246.185 43.8107 246.185 47.368V65H235.281V48.47C235.281 47.2327 235.01 46.3433 234.469 45.802C233.927 45.2607 232.98 44.99 231.627 44.99C230.815 44.99 229.964 45.1833 229.075 45.57C228.224 45.9567 227.528 46.4207 226.987 46.962V65H216.083ZM249.927 65V59.026L261.469 45.86H250.333V37.508H275.331V43.656L264.137 56.648H275.737V65H249.927ZM293.577 65.58C288.086 65.58 284.026 64.362 281.397 61.926C278.806 59.49 277.511 55.9327 277.511 51.254C277.511 46.614 278.825 43.076 281.455 40.64C284.084 38.1653 288.125 36.928 293.577 36.928C299.067 36.928 303.127 38.1653 305.757 40.64C308.425 43.076 309.759 46.614 309.759 51.254C309.759 55.9327 308.444 59.49 305.815 61.926C303.185 64.362 299.106 65.58 293.577 65.58ZM293.577 57.634C295.355 57.634 296.631 57.1313 297.405 56.126C298.217 55.1207 298.623 53.4967 298.623 51.254C298.623 49.05 298.217 47.4453 297.405 46.44C296.631 45.396 295.355 44.874 293.577 44.874C291.837 44.874 290.58 45.396 289.807 46.44C289.033 47.4453 288.647 49.05 288.647 51.254C288.647 53.4967 289.033 55.1207 289.807 56.126C290.58 57.1313 291.837 57.634 293.577 57.634ZM313.844 65V37.508H324.052L324.342 39.596C325.386 38.9 326.759 38.2813 328.46 37.74C330.2 37.1987 332.056 36.928 334.028 36.928C337.47 36.928 339.983 37.7787 341.568 39.48C343.154 41.1813 343.946 43.8107 343.946 47.368V65H333.042V48.47C333.042 47.2327 332.772 46.3433 332.23 45.802C331.689 45.2607 330.742 44.99 329.388 44.99C328.576 44.99 327.726 45.1833 326.836 45.57C325.986 45.9567 325.29 46.4207 324.748 46.962V65H313.844ZM347.688 65V57.17H356.272V65H347.688ZM372.004 65.58C369.414 65.58 367.152 65.1547 365.218 64.304C363.324 63.4147 361.835 61.984 360.752 60.012C359.708 58.04 359.186 55.4107 359.186 52.124C359.186 48.76 359.786 45.9567 360.984 43.714C362.183 41.4713 363.788 39.7893 365.798 38.668C367.809 37.508 369.994 36.928 372.352 36.928C373.628 36.928 374.885 37.0633 376.122 37.334C377.398 37.6047 378.5 37.9913 379.428 38.494V25.908H390.332V65H380.878L380.356 62.854C379.274 63.7047 378.056 64.3813 376.702 64.884C375.388 65.348 373.822 65.58 372.004 65.58ZM375.136 57.692C376.799 57.692 378.23 57.1313 379.428 56.01V46.266C378.346 45.2993 376.915 44.816 375.136 44.816C373.706 44.816 372.546 45.454 371.656 46.73C370.767 48.006 370.322 49.8233 370.322 52.182C370.322 54.502 370.709 56.01 371.482 56.706C372.256 57.3633 373.474 57.692 375.136 57.692ZM410.148 65.58C406.939 65.58 404.097 65.058 401.622 64.014C399.186 62.9313 397.272 61.3267 395.88 59.2C394.527 57.0733 393.85 54.444 393.85 51.312C393.85 46.9427 395.088 43.4627 397.562 40.872C400.037 38.2427 403.73 36.928 408.64 36.928C413.126 36.928 416.625 38.0687 419.138 40.35C421.69 42.6313 422.966 45.744 422.966 49.688V54.502H403.884C404.387 55.9713 405.373 57.0153 406.842 57.634C408.312 58.2527 410.303 58.562 412.816 58.562C414.402 58.562 415.987 58.4267 417.572 58.156C419.196 57.8467 420.492 57.4987 421.458 57.112V63.666C418.752 64.942 414.982 65.58 410.148 65.58ZM403.884 48.586H413.57V47.6C413.57 46.5173 413.222 45.628 412.526 44.932C411.869 44.236 410.69 43.888 408.988 43.888C407.094 43.888 405.76 44.294 404.986 45.106C404.252 45.8793 403.884 47.0393 403.884 48.586ZM433.526 65L422.68 37.508H434.048L439.268 53.632L444.488 37.508H455.856L445.01 65H433.526Z" fill="white"/>
<path d="M42.756 63.434L42.0489 64.1411L42.756 63.434ZM40.61 25.908V24.908H39.61V25.908H40.61ZM51.514 25.908H52.514V24.908H51.514V25.908ZM52.036 57.228L51.3716 57.9754L51.3962 57.9972L51.4221 58.0174L52.036 57.228ZM55.11 57.518L54.9579 56.5296L54.9456 56.5316L55.11 57.518ZM56.502 57.17H57.502V55.7423L56.1603 56.2302L56.502 57.17ZM56.502 64.42L56.861 65.3533L57.502 65.1068V64.42H56.502ZM53.544 65.29L53.3479 64.3094L53.34 64.311L53.544 65.29ZM49.948 64.58C46.6829 64.58 44.6146 63.8784 43.4631 62.7269L42.0489 64.1411C43.7588 65.851 46.4851 66.58 49.948 66.58V64.58ZM43.4631 62.7269C42.2969 61.5606 41.61 59.6287 41.61 56.706H39.61C39.61 59.8926 40.3538 62.446 42.0489 64.1411L43.4631 62.7269ZM41.61 56.706V25.908H39.61V56.706H41.61ZM40.61 26.908H51.514V24.908H40.61V26.908ZM50.514 25.908V55.488H52.514V25.908H50.514ZM50.514 55.488C50.514 56.4062 50.6886 57.3683 51.3716 57.9754L52.7004 56.4806C52.6874 56.4691 52.514 56.2711 52.514 55.488H50.514ZM51.4221 58.0174C52.0288 58.4893 52.8384 58.634 53.66 58.634V56.634C53.0123 56.634 52.7392 56.5081 52.6499 56.4386L51.4221 58.0174ZM53.66 58.634C54.214 58.634 54.7525 58.5914 55.2744 58.5044L54.9456 56.5316C54.5395 56.5993 54.1113 56.634 53.66 56.634V58.634ZM55.2621 58.5064C55.8216 58.4203 56.3499 58.2894 56.8437 58.1098L56.1603 56.2302C55.8034 56.36 55.4038 56.461 54.9579 56.5296L55.2621 58.5064ZM55.502 57.17V64.42H57.502V57.17H55.502ZM56.143 63.4867C55.1857 63.8548 54.2542 64.1282 53.3479 64.3094L53.7401 66.2706C54.7671 66.0652 55.8076 65.7585 56.861 65.3533L56.143 63.4867ZM53.34 64.311C52.5052 64.485 51.3818 64.58 49.948 64.58V66.58C51.4529 66.58 52.7269 66.4817 53.748 66.269L53.34 64.311ZM60.0948 62.854L59.3877 63.5611L60.0948 62.854ZM57.3688 37.508V36.508H56.3688V37.508H57.3688ZM68.2728 37.508H69.2728V36.508H68.2728V37.508ZM74.5368 56.996L74.123 56.0856L74.123 56.0856L74.5368 56.996ZM76.5668 55.546L77.3225 56.2009L77.5668 55.919V55.546H76.5668ZM76.5668 37.508V36.508H75.5668V37.508H76.5668ZM87.4708 37.508H88.4708V36.508H87.4708V37.508ZM87.4708 65V66H88.4708V65H87.4708ZM77.2628 65L76.2723 65.1376L76.3921 66H77.2628V65ZM76.9728 62.912L77.9633 62.7744L77.736 61.138L76.3916 62.0983L76.9728 62.912ZM72.9708 64.826L72.6686 63.8727L72.6617 63.875L72.9708 64.826ZM67.6348 64.58C64.621 64.58 62.3876 63.7326 60.8019 62.1469L59.3877 63.5611C61.4367 65.6101 64.23 66.58 67.6348 66.58V64.58ZM60.8019 62.1469C59.2327 60.5777 58.3688 58.2036 58.3688 54.85H56.3688C56.3688 58.5337 57.3222 61.4956 59.3877 63.5611L60.8019 62.1469ZM58.3688 54.85V37.508H56.3688V54.85H58.3688ZM57.3688 38.508H68.2728V36.508H57.3688V38.508ZM67.2728 37.508V53.98H69.2728V37.508H67.2728ZM67.2728 53.98C67.2728 55.3369 67.6188 56.5373 68.4849 57.3897C69.3481 58.2392 70.5587 58.576 71.9268 58.576V56.576C70.859 56.576 70.2426 56.3134 69.8878 55.9643C69.5359 55.618 69.2728 55.0204 69.2728 53.98H67.2728ZM71.9268 58.576C72.9661 58.576 73.9767 58.349 74.9506 57.9064L74.123 56.0856C73.3956 56.4163 72.6662 56.576 71.9268 56.576V58.576ZM74.9506 57.9064C75.9044 57.4728 76.7074 56.9107 77.3225 56.2009L75.8111 54.8911C75.4209 55.3413 74.8706 55.7458 74.123 56.0856L74.9506 57.9064ZM77.5668 55.546V37.508H75.5668V55.546H77.5668ZM76.5668 38.508H87.4708V36.508H76.5668V38.508ZM86.4708 37.508V65H88.4708V37.508H86.4708ZM87.4708 64H77.2628V66H87.4708V64ZM78.2533 64.8624L77.9633 62.7744L75.9823 63.0496L76.2723 65.1376L78.2533 64.8624ZM76.3916 62.0983C75.4123 62.7978 74.178 63.3942 72.6686 63.8728L73.2731 65.7792C74.9343 65.2525 76.3681 64.5729 77.5541 63.7257L76.3916 62.0983ZM72.6617 63.875C71.2353 64.3386 69.5643 64.58 67.6348 64.58V66.58C69.7267 66.58 71.6131 66.3188 73.2799 65.777L72.6617 63.875ZM94.5767 33.854H93.5767V34.854H94.5767V33.854ZM94.5767 25.966V24.966H93.5767V25.966H94.5767ZM106.351 25.966H107.351V24.966H106.351V25.966ZM106.351 33.854V34.854H107.351V33.854H106.351ZM95.4467 65H94.4467V66H95.4467V65ZM95.4467 45.454H96.4467V44.454H95.4467V45.454ZM91.4447 45.454L90.4515 45.338L90.3211 46.454H91.4447V45.454ZM92.3727 37.508V36.508H91.4827L91.3795 37.392L92.3727 37.508ZM106.351 37.508H107.351V36.508H106.351V37.508ZM106.351 65V66H107.351V65H106.351ZM95.5767 33.854V25.966H93.5767V33.854H95.5767ZM94.5767 26.966H106.351V24.966H94.5767V26.966ZM105.351 25.966V33.854H107.351V25.966H105.351ZM106.351 32.854H94.5767V34.854H106.351V32.854ZM96.4467 65V45.454H94.4467V65H96.4467ZM95.4467 44.454H91.4447V46.454H95.4467V44.454ZM92.438 45.57L93.366 37.624L91.3795 37.392L90.4515 45.338L92.438 45.57ZM92.3727 38.508H106.351V36.508H92.3727V38.508ZM105.351 37.508V65H107.351V37.508H105.351ZM106.351 64H95.4467V66H106.351V64ZM110.421 65H109.421V66H110.421V65ZM110.421 59.026L109.669 58.3668L109.421 58.6497V59.026H110.421ZM121.963 45.86L122.715 46.5192L124.169 44.86H121.963V45.86ZM110.827 45.86H109.827V46.86H110.827V45.86ZM110.827 37.508V36.508H109.827V37.508H110.827ZM135.825 37.508H136.825V36.508H135.825V37.508ZM135.825 43.656L136.582 44.3087L136.825 44.0274V43.656H135.825ZM124.631 56.648L123.873 55.9953L122.449 57.648H124.631V56.648ZM136.231 56.648H137.231V55.648H136.231V56.648ZM136.231 65V66H137.231V65H136.231ZM111.421 65V59.026H109.421V65H111.421ZM111.173 59.6852L122.715 46.5192L121.211 45.2008L109.669 58.3668L111.173 59.6852ZM121.963 44.86H110.827V46.86H121.963V44.86ZM111.827 45.86V37.508H109.827V45.86H111.827ZM110.827 38.508H135.825V36.508H110.827V38.508ZM134.825 37.508V43.656H136.825V37.508H134.825ZM135.067 43.0033L123.873 55.9953L125.388 57.3007L136.582 44.3087L135.067 43.0033ZM124.631 57.648H136.231V55.648H124.631V57.648ZM135.231 56.648V65H137.231V56.648H135.231ZM136.231 64H110.421V66H136.231V64ZM141.806 65H140.806V66H141.806V65ZM141.806 45.57H142.806V44.57H141.806V45.57ZM138.268 45.57H137.268V46.57H138.268V45.57ZM138.268 37.508V36.508H137.268V37.508H138.268ZM141.806 37.508V38.508H142.806V37.508H141.806ZM144.474 28.054L145.223 28.7166L145.229 28.7095L144.474 28.054ZM156.48 25.328L156.283 26.3086L156.289 26.3098L156.48 25.328ZM159.844 26.314H160.844V25.6416L160.221 25.3879L159.844 26.314ZM159.844 33.39L159.527 34.3387L160.844 34.7774V33.39H159.844ZM158.104 32.926L157.894 33.9039L157.907 33.9066L158.104 32.926ZM153.464 33.506L152.783 32.7732L152.769 32.7858L152.756 32.7989L153.464 33.506ZM152.71 37.508H151.71V38.508H152.71V37.508ZM159.206 37.508L160.204 37.5655L160.265 36.508H159.206V37.508ZM158.742 45.57V46.57H159.686L159.74 45.6275L158.742 45.57ZM152.71 45.57V44.57H151.71V45.57H152.71ZM152.71 65V66H153.71V65H152.71ZM142.806 65V45.57H140.806V65H142.806ZM141.806 44.57H138.268V46.57H141.806V44.57ZM139.268 45.57V37.508H137.268V45.57H139.268ZM138.268 38.508H141.806V36.508H138.268V38.508ZM142.806 37.508V35.71H140.806V37.508H142.806ZM142.806 35.71C142.806 32.8212 143.63 30.5168 145.222 28.7166L143.725 27.3914C141.76 29.6125 140.806 32.4121 140.806 35.71H142.806ZM145.229 28.7095C146.763 26.9422 149.114 25.98 152.478 25.98V23.98C148.726 23.98 145.742 25.0671 143.718 27.3985L145.229 28.7095ZM152.478 25.98C153.937 25.98 155.203 26.0924 156.283 26.3086L156.676 24.3474C155.436 24.0995 154.034 23.98 152.478 23.98V25.98ZM156.289 26.3098C157.429 26.5304 158.487 26.8413 159.466 27.2401L160.221 25.3879C159.112 24.936 157.927 24.5896 156.67 24.3462L156.289 26.3098ZM158.844 26.314V33.39H160.844V26.314H158.844ZM160.16 32.4413C159.542 32.2353 158.922 32.0698 158.3 31.9454L157.907 33.9066C158.445 34.0142 158.985 34.158 159.527 34.3387L160.16 32.4413ZM158.313 31.9482C157.695 31.8158 157.044 31.752 156.364 31.752V33.752C156.92 33.752 157.429 33.8042 157.894 33.9038L158.313 31.9482ZM156.364 31.752C154.916 31.752 153.616 32.0001 152.783 32.7732L154.144 34.2388C154.394 34.0066 155.027 33.752 156.364 33.752V31.752ZM152.756 32.7989C151.982 33.5728 151.71 34.7037 151.71 35.942H153.71C153.71 34.9376 153.939 34.4445 154.171 34.2131L152.756 32.7989ZM151.71 35.942V37.508H153.71V35.942H151.71ZM152.71 38.508H159.206V36.508H152.71V38.508ZM158.207 37.4505L157.743 45.5125L159.74 45.6275L160.204 37.5655L158.207 37.4505ZM158.742 44.57H152.71V46.57H158.742V44.57ZM151.71 45.57V65H153.71V45.57H151.71ZM152.71 64H141.806V66H152.71V64ZM161.424 65H160.424V66H161.424V65ZM161.424 37.508V36.508H160.424V37.508H161.424ZM171.922 37.508L172.914 37.3775L172.799 36.508H171.922V37.508ZM172.212 39.712L171.221 39.8425L171.418 41.3371L172.718 40.5747L172.212 39.712ZM176.504 37.914L176.802 38.8689L176.802 38.8689L176.504 37.914ZM181.782 36.928H182.782V35.8607L181.717 35.9301L181.782 36.928ZM181.782 45.048L181.859 46.0451L182.782 45.974V45.048H181.782ZM178.476 45.454L178.317 44.4667L178.312 44.4676L178.476 45.454ZM175.054 46.208L175.297 47.1781L175.309 47.1752L175.32 47.172L175.054 46.208ZM172.328 47.136L171.9 46.2323L171.328 46.5032V47.136H172.328ZM172.328 65V66H173.328V65H172.328ZM162.424 65V37.508H160.424V65H162.424ZM161.424 38.508H171.922V36.508H161.424V38.508ZM170.931 37.6385L171.221 39.8425L173.204 39.5815L172.914 37.3775L170.931 37.6385ZM172.718 40.5747C173.753 39.9679 175.108 39.3958 176.802 38.8689L176.207 36.9591C174.421 37.5148 172.914 38.1414 171.707 38.8493L172.718 40.5747ZM176.802 38.8689C178.468 38.3504 180.149 38.0366 181.848 37.9259L181.717 35.9301C179.858 36.0514 178.021 36.3949 176.207 36.9591L176.802 38.8689ZM180.782 36.928V45.048H182.782V36.928H180.782ZM181.706 44.0509C180.668 44.1308 179.538 44.2699 178.317 44.4668L178.636 46.4412C179.812 46.2515 180.886 46.1199 181.859 46.0451L181.706 44.0509ZM178.312 44.4676C177.118 44.6666 175.944 44.9254 174.789 45.244L175.32 47.172C176.408 46.872 177.515 46.6281 178.641 46.4404L178.312 44.4676ZM174.812 45.2379C173.687 45.519 172.712 45.8478 171.9 46.2323L172.757 48.0397C173.414 47.7281 174.256 47.4383 175.297 47.1781L174.812 45.2379ZM171.328 47.136V65H173.328V47.136H171.328ZM172.328 64H161.424V66H172.328V64ZM186.83 64.652L186.442 65.5737L186.45 65.5772L186.83 64.652ZM183.292 61.752L182.464 62.3123L182.464 62.3123L183.292 61.752ZM184.858 50.036L185.492 50.8093L185.501 50.8017L184.858 50.036ZM200.75 47.6V48.6H201.75V47.6H200.75ZM199.416 44.7L199.908 43.8294L199.908 43.8294L199.416 44.7ZM185.322 45.396H184.322V46.7562L185.62 46.3505L185.322 45.396ZM185.322 38.842L184.959 37.91L184.322 38.1579V38.842H185.322ZM190.542 37.508L190.706 38.4944L190.715 38.4929L190.724 38.4913L190.542 37.508ZM207.304 39.596L206.732 40.4164L207.304 39.596ZM211.132 65V66H212.132V65H211.132ZM201.62 65L200.647 65.2305L200.829 66H201.62V65ZM201.098 62.796L202.071 62.5655L201.687 60.9453L200.437 62.0453L201.098 62.796ZM197.328 64.826L197.019 63.8749L197.012 63.8773L197.328 64.826ZM198.546 58.562L198.114 57.6599L198.106 57.6636L198.099 57.6676L198.546 58.562ZM200.75 56.996L201.479 57.6799L201.75 57.3914V56.996H200.75ZM200.75 53.574H201.75V52.574H200.75V53.574ZM191.702 64.58C190.083 64.58 188.589 64.2928 187.209 63.7268L186.45 65.5772C188.087 66.2485 189.841 66.58 191.702 66.58V64.58ZM187.218 63.7304C185.926 63.1866 184.9 62.345 184.12 61.1917L182.464 62.3123C183.462 63.7883 184.795 64.8801 186.442 65.5736L187.218 63.7304ZM184.12 61.1917C183.369 60.0816 182.958 58.6282 182.958 56.764H180.958C180.958 58.9212 181.436 60.793 182.464 62.3123L184.12 61.1917ZM182.958 56.764C182.958 54.11 183.829 52.1731 185.492 50.8093L184.224 49.2627C182.02 51.0695 180.958 53.618 180.958 56.764H182.958ZM185.501 50.8017C187.179 49.3926 189.823 48.6 193.616 48.6V46.6C189.598 46.6 186.404 47.4314 184.215 49.2703L185.501 50.8017ZM193.616 48.6H200.75V46.6H193.616V48.6ZM201.75 47.6V47.078H199.75V47.6H201.75ZM201.75 47.078C201.75 45.6613 201.134 44.5222 199.908 43.8294L198.924 45.5706C199.477 45.8831 199.75 46.3293 199.75 47.078H201.75ZM199.908 43.8294C198.773 43.1879 196.973 42.946 194.718 42.946V44.946C196.948 44.946 198.28 45.2068 198.924 45.5706L199.908 43.8294ZM194.718 42.946C191.444 42.946 188.211 43.4454 185.024 44.4415L185.62 46.3505C188.619 45.4133 191.651 44.946 194.718 44.946V42.946ZM186.322 45.396V38.842H184.322V45.396H186.322ZM185.684 39.774C186.992 39.2655 188.66 38.8354 190.706 38.4944L190.377 36.5216C188.247 36.8766 186.436 37.3359 184.959 37.91L185.684 39.774ZM190.724 38.4913C192.751 38.116 194.816 37.928 196.922 37.928V35.928C194.697 35.928 192.509 36.1267 190.36 36.5247L190.724 38.4913ZM196.922 37.928C201.167 37.928 204.403 38.7933 206.732 40.4164L207.876 38.7756C205.1 36.8414 201.416 35.928 196.922 35.928V37.928ZM206.732 40.4164C208.95 41.9621 210.132 44.4348 210.132 48.064H212.132C212.132 43.9598 210.762 40.7872 207.876 38.7756L206.732 40.4164ZM210.132 48.064V65H212.132V48.064H210.132ZM211.132 64H201.62V66H211.132V64ZM202.593 64.7695L202.071 62.5655L200.125 63.0265L200.647 65.2305L202.593 64.7695ZM200.437 62.0453C199.596 62.7856 198.469 63.4037 197.019 63.875L197.637 65.777C199.28 65.2429 200.666 64.5077 201.758 63.5467L200.437 62.0453ZM197.012 63.8773C195.638 64.3352 193.878 64.58 191.702 64.58V66.58C194.011 66.58 196.002 66.3221 197.644 65.7747L197.012 63.8773ZM195.414 60.2C196.761 60.2 197.968 59.9689 198.993 59.4564L198.099 57.6676C197.422 58.0058 196.541 58.2 195.414 58.2V60.2ZM198.977 59.4641C199.961 58.9938 200.802 58.4027 201.479 57.6799L200.02 56.3121C199.538 56.8267 198.91 57.2795 198.114 57.6599L198.977 59.4641ZM201.75 56.996V53.574H199.75V56.996H201.75ZM200.75 52.574H195.472V54.574H200.75V52.574ZM195.472 52.574C194.168 52.574 193.006 52.827 192.155 53.4999C191.258 54.2083 190.876 55.2437 190.876 56.416H192.876C192.876 55.6936 193.093 55.308 193.395 55.0691C193.742 54.7947 194.378 54.574 195.472 54.574V52.574ZM190.876 56.416C190.876 57.5705 191.255 58.5917 192.142 59.2899C192.984 59.9521 194.13 60.2 195.414 60.2V58.2C194.338 58.2 193.716 57.9839 193.379 57.7181C193.087 57.4883 192.876 57.1175 192.876 56.416H190.876ZM216.083 65H215.083V66H216.083V65ZM216.083 37.508V36.508H215.083V37.508H216.083ZM226.291 37.508L227.281 37.3704L227.161 36.508H226.291V37.508ZM226.581 39.596L225.59 39.7336L225.809 41.312L227.135 40.428L226.581 39.596ZM230.699 37.74L230.402 36.7851L230.395 36.7871L230.699 37.74ZM243.807 39.48L243.075 40.1617L243.075 40.1617L243.807 39.48ZM246.185 65V66H247.185V65H246.185ZM235.281 65H234.281V66H235.281V65ZM234.469 45.802L235.176 45.0949L235.176 45.0949L234.469 45.802ZM229.075 45.57L228.676 44.6529L228.668 44.6562L228.661 44.6596L229.075 45.57ZM226.987 46.962L226.28 46.2549L225.987 46.5478V46.962H226.987ZM226.987 65V66H227.987V65H226.987ZM217.083 65V37.508H215.083V65H217.083ZM216.083 38.508H226.291V36.508H216.083V38.508ZM225.3 37.6456L225.59 39.7336L227.571 39.4584L227.281 37.3704L225.3 37.6456ZM227.135 40.428C228.076 39.8007 229.355 39.2168 231.002 38.6929L230.395 36.7871C228.639 37.3458 227.173 37.9993 226.026 38.7639L227.135 40.428ZM230.996 38.6949C232.632 38.1858 234.387 37.928 236.267 37.928V35.928C234.202 35.928 232.245 36.2115 230.402 36.7851L230.996 38.6949ZM236.267 37.928C239.564 37.928 241.754 38.744 243.075 40.1617L244.538 38.7983C242.689 36.8133 239.852 35.928 236.267 35.928V37.928ZM243.075 40.1617C244.416 41.6008 245.185 43.9336 245.185 47.368H247.185C247.185 43.6877 246.368 40.7618 244.538 38.7983L243.075 40.1617ZM245.185 47.368V65H247.185V47.368H245.185ZM246.185 64H235.281V66H246.185V64ZM236.281 65V48.47H234.281V65H236.281ZM236.281 48.47C236.281 47.1241 235.992 45.9112 235.176 45.0949L233.762 46.5091C234.028 46.7755 234.281 47.3413 234.281 48.47H236.281ZM235.176 45.0949C234.347 44.2656 233.058 43.99 231.627 43.99V45.99C232.902 45.99 233.508 46.2557 233.762 46.5091L235.176 45.0949ZM231.627 43.99C230.654 43.99 229.667 44.222 228.676 44.6529L229.473 46.4871C230.261 46.1447 230.976 45.99 231.627 45.99V43.99ZM228.661 44.6596C227.724 45.0853 226.922 45.6124 226.28 46.2549L227.694 47.6691C228.134 47.229 228.724 46.828 229.488 46.4804L228.661 44.6596ZM225.987 46.962V65H227.987V46.962H225.987ZM226.987 64H216.083V66H226.987V64ZM249.927 65H248.927V66H249.927V65ZM249.927 59.026L249.175 58.3668L248.927 58.6497V59.026H249.927ZM261.469 45.86L262.221 46.5192L263.675 44.86H261.469V45.86ZM250.333 45.86H249.333V46.86H250.333V45.86ZM250.333 37.508V36.508H249.333V37.508H250.333ZM275.331 37.508H276.331V36.508H275.331V37.508ZM275.331 43.656L276.088 44.3087L276.331 44.0274V43.656H275.331ZM264.137 56.648L263.379 55.9953L261.955 57.648H264.137V56.648ZM275.737 56.648H276.737V55.648H275.737V56.648ZM275.737 65V66H276.737V65H275.737ZM250.927 65V59.026H248.927V65H250.927ZM250.679 59.6852L262.221 46.5192L260.717 45.2008L249.175 58.3668L250.679 59.6852ZM261.469 44.86H250.333V46.86H261.469V44.86ZM251.333 45.86V37.508H249.333V45.86H251.333ZM250.333 38.508H275.331V36.508H250.333V38.508ZM274.331 37.508V43.656H276.331V37.508H274.331ZM274.573 43.0033L263.379 55.9953L264.894 57.3007L276.088 44.3087L274.573 43.0033ZM264.137 57.648H275.737V55.648H264.137V57.648ZM274.737 56.648V65H276.737V56.648H274.737ZM275.737 64H249.927V66H275.737V64ZM281.397 61.926L280.712 62.6545L280.717 62.6596L281.397 61.926ZM281.455 40.64L282.134 41.3736L282.14 41.3682L281.455 40.64ZM305.757 40.64L305.071 41.3682L305.077 41.3734L305.082 41.3785L305.757 40.64ZM305.815 61.926L305.135 61.1924L305.135 61.1924L305.815 61.926ZM297.405 56.126L296.627 55.4977L296.619 55.5069L296.612 55.5163L297.405 56.126ZM297.405 46.44L296.601 47.0352L296.613 47.052L296.627 47.0683L297.405 46.44ZM289.807 46.44L290.599 47.0497L290.605 47.0425L290.61 47.0352L289.807 46.44ZM289.807 56.126L290.599 55.5163L290.599 55.5163L289.807 56.126ZM293.577 64.58C288.208 64.58 284.443 63.3857 282.076 61.1924L280.717 62.6596C283.608 65.3383 287.964 66.58 293.577 66.58V64.58ZM282.082 61.1975C279.75 59.005 278.511 55.7481 278.511 51.254H276.511C276.511 56.1173 277.862 59.975 280.712 62.6545L282.082 61.1975ZM278.511 51.254C278.511 46.8058 279.765 43.5685 282.134 41.3736L280.775 39.9064C277.885 42.5835 276.511 46.4222 276.511 51.254H278.511ZM282.14 41.3682C284.508 39.1391 288.252 37.928 293.577 37.928V35.928C287.997 35.928 283.659 37.1916 280.769 39.9118L282.14 41.3682ZM293.577 37.928C298.942 37.928 302.704 39.1401 305.071 41.3682L306.442 39.9118C303.551 37.1906 299.193 35.928 293.577 35.928V37.928ZM305.082 41.3785C307.487 43.5745 308.759 46.8101 308.759 51.254H310.759C310.759 46.4179 309.362 42.5775 306.431 39.9015L305.082 41.3785ZM308.759 51.254C308.759 55.7438 307.502 58.999 305.135 61.1924L306.494 62.6596C309.385 59.981 310.759 56.1216 310.759 51.254H308.759ZM305.135 61.1924C302.769 63.3847 298.986 64.58 293.577 64.58V66.58C299.226 66.58 303.602 65.3393 306.494 62.6596L305.135 61.1924ZM293.577 58.634C295.533 58.634 297.166 58.0759 298.197 56.7357L296.612 55.5163C296.096 56.1868 295.177 56.634 293.577 56.634V58.634ZM298.182 56.7543C299.211 55.481 299.623 53.5736 299.623 51.254H297.623C297.623 53.4197 297.222 54.7603 296.627 55.4977L298.182 56.7543ZM299.623 51.254C299.623 48.968 299.209 47.0827 298.182 45.8117L296.627 47.0683C297.224 47.808 297.623 49.132 297.623 51.254H299.623ZM298.208 45.8448C297.182 44.4596 295.546 43.874 293.577 43.874V45.874C295.164 45.874 296.08 46.3324 296.601 47.0352L298.208 45.8448ZM293.577 43.874C291.636 43.874 290.025 44.4651 289.003 45.8448L290.61 47.0352C291.135 46.3269 292.037 45.874 293.577 45.874V43.874ZM289.014 45.8303C288.038 47.0986 287.647 48.9753 287.647 51.254H289.647C289.647 49.1247 290.028 47.7921 290.599 47.0497L289.014 45.8303ZM287.647 51.254C287.647 53.5666 288.037 55.4652 289.014 56.7357L290.599 55.5163C290.03 54.7761 289.647 53.4268 289.647 51.254H287.647ZM289.014 56.7357C290.041 58.0707 291.649 58.634 293.577 58.634V56.634C292.024 56.634 291.119 56.192 290.599 55.5163L289.014 56.7357ZM313.844 65H312.844V66H313.844V65ZM313.844 37.508V36.508H312.844V37.508H313.844ZM324.052 37.508L325.043 37.3704L324.923 36.508H324.052V37.508ZM324.342 39.596L323.352 39.7336L323.571 41.312L324.897 40.428L324.342 39.596ZM328.46 37.74L328.163 36.7851L328.157 36.7871L328.46 37.74ZM341.568 39.48L340.837 40.1617L340.837 40.1617L341.568 39.48ZM343.946 65V66H344.946V65H343.946ZM333.042 65H332.042V66H333.042V65ZM332.23 45.802L332.937 45.0949L332.937 45.0949L332.23 45.802ZM326.836 45.57L326.438 44.6529L326.43 44.6562L326.423 44.6596L326.836 45.57ZM324.748 46.962L324.041 46.2549L323.748 46.5478V46.962H324.748ZM324.748 65V66H325.748V65H324.748ZM314.844 65V37.508H312.844V65H314.844ZM313.844 38.508H324.052V36.508H313.844V38.508ZM323.062 37.6456L323.352 39.7336L325.333 39.4584L325.043 37.3704L323.062 37.6456ZM324.897 40.428C325.838 39.8007 327.117 39.2168 328.764 38.6929L328.157 36.7871C326.401 37.3458 324.935 37.9993 323.788 38.7639L324.897 40.428ZM328.757 38.6949C330.394 38.1858 332.149 37.928 334.028 37.928V35.928C331.964 35.928 330.007 36.2115 328.163 36.7851L328.757 38.6949ZM334.028 37.928C337.326 37.928 339.516 38.744 340.837 40.1617L342.3 38.7983C340.45 36.8133 337.613 35.928 334.028 35.928V37.928ZM340.837 40.1617C342.178 41.6008 342.946 43.9336 342.946 47.368H344.946C344.946 43.6877 344.13 40.7618 342.3 38.7983L340.837 40.1617ZM342.946 47.368V65H344.946V47.368H342.946ZM343.946 64H333.042V66H343.946V64ZM334.042 65V48.47H332.042V65H334.042ZM334.042 48.47C334.042 47.1241 333.754 45.9112 332.937 45.0949L331.523 46.5091C331.79 46.7755 332.042 47.3413 332.042 48.47H334.042ZM332.937 45.0949C332.108 44.2656 330.819 43.99 329.388 43.99V45.99C330.664 45.99 331.27 46.2557 331.523 46.5091L332.937 45.0949ZM329.388 43.99C328.415 43.99 327.429 44.222 326.438 44.6529L327.235 46.4871C328.023 46.1447 328.738 45.99 329.388 45.99V43.99ZM326.423 44.6596C325.486 45.0853 324.684 45.6124 324.041 46.2549L325.455 47.6691C325.896 47.229 326.485 46.828 327.25 46.4804L326.423 44.6596ZM323.748 46.962V65H325.748V46.962H323.748ZM324.748 64H313.844V66H324.748V64ZM347.688 65H346.688V66H347.688V65ZM347.688 57.17V56.17H346.688V57.17H347.688ZM356.272 57.17H357.272V56.17H356.272V57.17ZM356.272 65V66H357.272V65H356.272ZM348.688 65V57.17H346.688V65H348.688ZM347.688 58.17H356.272V56.17H347.688V58.17ZM355.272 57.17V65H357.272V57.17H355.272ZM356.272 64H347.688V66H356.272V64ZM365.218 64.304L364.793 65.2092L364.804 65.2144L364.816 65.2193L365.218 64.304ZM360.752 60.012L359.869 60.4799L359.872 60.4866L359.876 60.4933L360.752 60.012ZM360.984 43.714L360.102 43.2426L360.984 43.714ZM365.798 38.668L366.285 39.5414L366.292 39.5378L366.298 39.5342L365.798 38.668ZM376.122 37.334L375.909 38.3109L375.915 38.3122L376.122 37.334ZM379.428 38.494L378.952 39.3733L380.428 40.1729V38.494H379.428ZM379.428 25.908V24.908H378.428V25.908H379.428ZM390.332 25.908H391.332V24.908H390.332V25.908ZM390.332 65V66H391.332V65H390.332ZM380.878 65L379.907 65.2364L380.092 66H380.878V65ZM380.356 62.854L381.328 62.6176L380.961 61.1074L379.739 62.0677L380.356 62.854ZM376.702 64.884L377.035 65.827L377.043 65.8243L377.051 65.8214L376.702 64.884ZM379.428 56.01L380.111 56.7403L380.428 56.4439V56.01H379.428ZM379.428 46.266H380.428V45.8183L380.094 45.5201L379.428 46.266ZM371.656 46.73L370.836 46.1582L370.836 46.1582L371.656 46.73ZM371.482 56.706L370.813 57.4493L370.824 57.4588L370.835 57.4679L371.482 56.706ZM372.004 64.58C369.522 64.58 367.402 64.1724 365.621 63.3887L364.816 65.2193C366.901 66.137 369.306 66.58 372.004 66.58V64.58ZM365.643 63.3988C363.955 62.6063 362.618 61.3319 361.629 59.5307L359.876 60.4933C361.052 62.6361 362.692 64.2231 364.793 65.2092L365.643 63.3988ZM361.636 59.5441C360.696 57.7684 360.186 55.319 360.186 52.124H358.186C358.186 55.5024 358.721 58.3116 359.869 60.4799L361.636 59.5441ZM360.186 52.124C360.186 48.8733 360.766 46.2438 361.866 44.1854L360.102 43.2426C358.805 45.6696 358.186 48.6467 358.186 52.124H360.186ZM361.866 44.1854C362.984 42.0935 364.459 40.5597 366.285 39.5414L365.311 37.7946C363.116 39.019 361.382 40.8492 360.102 43.2426L361.866 44.1854ZM366.298 39.5342C368.154 38.4633 370.166 37.928 372.352 37.928V35.928C369.821 35.928 367.464 36.5527 365.299 37.8018L366.298 39.5342ZM372.352 37.928C373.557 37.928 374.742 38.0557 375.909 38.3109L376.336 36.3571C375.028 36.071 373.7 35.928 372.352 35.928V37.928ZM375.915 38.3122C377.118 38.5675 378.126 38.9256 378.952 39.3733L379.905 37.6147C378.875 37.0571 377.679 36.6419 376.33 36.3558L375.915 38.3122ZM380.428 38.494V25.908H378.428V38.494H380.428ZM379.428 26.908H390.332V24.908H379.428V26.908ZM389.332 25.908V65H391.332V25.908H389.332ZM390.332 64H380.878V66H390.332V64ZM381.85 64.7636L381.328 62.6176L379.385 63.0904L379.907 65.2364L381.85 64.7636ZM379.739 62.0677C378.741 62.8513 377.615 63.4782 376.354 63.9466L377.051 65.8214C378.496 65.2844 379.806 64.5581 380.974 63.6403L379.739 62.0677ZM376.37 63.941C375.189 64.3578 373.741 64.58 372.004 64.58V66.58C373.902 66.58 375.587 66.3382 377.035 65.827L376.37 63.941ZM375.136 58.692C377.049 58.692 378.725 58.0374 380.111 56.7403L378.745 55.2797C377.734 56.2253 376.549 56.692 375.136 56.692V58.692ZM380.428 56.01V46.266H378.428V56.01H380.428ZM380.094 45.5201C378.789 44.3549 377.103 43.816 375.136 43.816V45.816C376.727 45.816 377.902 46.2437 378.762 47.0119L380.094 45.5201ZM375.136 43.816C373.347 43.816 371.893 44.6414 370.836 46.1582L372.477 47.3018C373.198 46.2666 374.065 45.816 375.136 45.816V43.816ZM370.836 46.1582C369.784 47.6682 369.322 49.718 369.322 52.182H371.322C371.322 49.9287 371.75 48.3438 372.477 47.3018L370.836 46.1582ZM369.322 52.182C369.322 53.3891 369.422 54.4371 369.644 55.3014C369.863 56.1573 370.224 56.9191 370.813 57.4493L372.151 55.9627C371.967 55.7969 371.748 55.4567 371.581 54.8046C371.416 54.1609 371.322 53.2949 371.322 52.182H369.322ZM370.835 57.4679C371.873 58.3506 373.377 58.692 375.136 58.692V56.692C373.57 56.692 372.638 56.3761 372.13 55.9441L370.835 57.4679ZM401.622 64.014L401.216 64.9278L401.225 64.9317L401.234 64.9354L401.622 64.014ZM395.88 59.2L395.037 59.7369L395.044 59.7477L395.88 59.2ZM397.562 40.872L398.286 41.5628L398.291 41.5574L397.562 40.872ZM419.138 40.35L418.466 41.0905L418.472 41.0955L419.138 40.35ZM422.966 54.502V55.502H423.966V54.502H422.966ZM403.884 54.502V53.502H402.485L402.938 54.8257L403.884 54.502ZM406.842 57.634L406.454 58.5556L406.454 58.5556L406.842 57.634ZM417.572 58.156L417.741 59.1417L417.75 59.1401L417.76 59.1383L417.572 58.156ZM421.458 57.112H422.458V55.635L421.087 56.1835L421.458 57.112ZM421.458 63.666L421.885 64.5705L422.458 64.3001V63.666H421.458ZM403.884 48.586H402.884V49.586H403.884V48.586ZM413.57 48.586V49.586H414.57V48.586H413.57ZM412.526 44.932L411.799 45.6186L411.809 45.629L411.819 45.6391L412.526 44.932ZM404.986 45.106L404.262 44.4163L404.261 44.4172L404.986 45.106ZM410.148 64.58C407.047 64.58 404.341 64.0757 402.011 63.0926L401.234 64.9354C403.853 66.0403 406.831 66.58 410.148 66.58V64.58ZM402.029 63.1002C399.759 62.0916 397.998 60.61 396.717 58.6523L395.044 59.7477C396.546 62.0433 398.614 63.771 401.216 64.9278L402.029 63.1002ZM396.724 58.6631C395.495 56.7318 394.85 54.2999 394.85 51.312H392.85C392.85 54.5881 393.559 57.4149 395.037 59.7369L396.724 58.6631ZM394.85 51.312C394.85 47.1402 396.026 43.9282 398.286 41.5627L396.839 40.1813C394.15 42.9971 392.85 46.7451 392.85 51.312H394.85ZM398.291 41.5574C400.516 39.1931 403.903 37.928 408.64 37.928V35.928C403.557 35.928 399.558 37.2923 396.834 40.1866L398.291 41.5574ZM408.64 37.928C412.959 37.928 416.19 39.0239 418.466 41.0905L419.81 39.6095C417.061 37.1134 413.293 35.928 408.64 35.928V37.928ZM418.472 41.0955C420.778 43.1575 421.966 45.9808 421.966 49.688H423.966C423.966 45.5072 422.602 42.1052 419.805 39.6045L418.472 41.0955ZM421.966 49.688V54.502H423.966V49.688H421.966ZM422.966 53.502H403.884V55.502H422.966V53.502ZM402.938 54.8257C403.536 56.5729 404.73 57.8297 406.454 58.5556L407.23 56.7124C406.016 56.201 405.238 55.3698 404.831 54.1783L402.938 54.8257ZM406.454 58.5556C408.097 59.2472 410.238 59.562 412.816 59.562V57.562C410.368 57.562 408.527 57.2581 407.23 56.7124L406.454 58.5556ZM412.816 59.562C414.459 59.562 416.101 59.4218 417.741 59.1417L417.404 57.1703C415.874 57.4316 414.345 57.562 412.816 57.562V59.562ZM417.76 59.1383C419.414 58.8231 420.779 58.4606 421.83 58.0405L421.087 56.1835C420.204 56.5367 418.978 56.8702 417.385 57.1737L417.76 59.1383ZM420.458 57.112V63.666H422.458V57.112H420.458ZM421.032 62.7615C418.516 63.9476 414.915 64.58 410.148 64.58V66.58C415.049 66.58 418.987 65.9364 421.885 64.5705L421.032 62.7615ZM403.884 49.586H413.57V47.586H403.884V49.586ZM414.57 48.586V47.6H412.57V48.586H414.57ZM414.57 47.6C414.57 46.2812 414.137 45.1281 413.233 44.2249L411.819 45.6391C412.308 46.1279 412.57 46.7534 412.57 47.6H414.57ZM413.253 44.2454C412.304 43.2406 410.767 42.888 408.988 42.888V44.888C410.613 44.888 411.434 45.2314 411.799 45.6186L413.253 44.2454ZM408.988 42.888C406.999 42.888 405.32 43.3061 404.262 44.4163L405.711 45.7957C406.2 45.2819 407.189 44.888 408.988 44.888V42.888ZM404.261 44.4172C403.284 45.4456 402.884 46.8976 402.884 48.586H404.884C404.884 47.181 405.219 46.3131 405.711 45.7947L404.261 44.4172ZM433.526 65L432.596 65.367L432.846 66H433.526V65ZM422.68 37.508V36.508H421.211L421.75 37.875L422.68 37.508ZM434.048 37.508L435 37.2L434.776 36.508H434.048V37.508ZM439.268 53.632L438.317 53.94L439.268 56.8787L440.22 53.94L439.268 53.632ZM444.488 37.508V36.508H443.761L443.537 37.2L444.488 37.508ZM455.856 37.508L456.787 37.875L457.326 36.508H455.856V37.508ZM445.01 65V66H445.691L445.941 65.367L445.01 65ZM434.457 64.633L423.611 37.141L421.75 37.875L432.596 65.367L434.457 64.633ZM422.68 38.508H434.048V36.508H422.68V38.508ZM433.097 37.816L438.317 53.94L440.22 53.324L435 37.2L433.097 37.816ZM440.22 53.94L445.44 37.816L443.537 37.2L438.317 53.324L440.22 53.94ZM444.488 38.508H455.856V36.508H444.488V38.508ZM454.926 37.141L444.08 64.633L445.941 65.367L456.787 37.875L454.926 37.141ZM445.01 64H433.526V66H445.01V64Z" fill="black"/>
<path d="M22.8825 79.544C18.3795 79.544 14.7955 78.4642 12.1305 76.3046C9.46544 74.145 8.13292 70.7218 8.13292 66.0351V55.4898C8.13292 54.0654 7.69641 53.0086 6.82339 52.3194C5.95036 51.6302 4.6638 51.2855 2.96369 51.2855V41.4985C4.6638 41.4985 5.95036 41.1538 6.82339 40.4646C7.69641 39.7754 8.13292 38.7186 8.13292 37.2942V26.9557C8.13292 22.2689 9.46544 18.8687 12.1305 16.7551C14.7955 14.5955 18.3795 13.5157 22.8825 13.5157H24.6055V22.6825H22.8825C21.3662 22.6825 20.2634 23.05 19.5742 23.7852C18.9309 24.5204 18.6092 25.6002 18.6092 27.0246V37.6388C18.6092 40.3497 18.0119 42.3485 16.8172 43.6351C15.6226 44.9216 13.8535 45.6798 11.5102 45.9095V46.8745C13.8535 47.0583 15.6226 47.7934 16.8172 49.08C18.0119 50.3666 18.6092 52.3653 18.6092 55.0763V66.0351C18.6092 67.4135 18.9309 68.4704 19.5742 69.2055C20.2634 69.9867 21.3662 70.3772 22.8825 70.3772H24.6055V79.544H22.8825Z" fill="url(#paint0_linear_43_7)"/>
<path d="M469.118 14.456C473.621 14.456 477.205 15.5358 479.87 17.6954C482.535 19.855 483.867 23.2782 483.867 27.9649V38.5102C483.867 39.9346 484.304 40.9914 485.177 41.6806C486.05 42.3698 487.336 42.7145 489.036 42.7145V52.5015C487.336 52.5015 486.05 52.8462 485.177 53.5354C484.304 54.2246 483.867 55.2814 483.867 56.7058V67.0443C483.867 71.7311 482.535 75.1313 479.87 77.2449C477.205 79.4045 473.621 80.4843 469.118 80.4843H467.394V71.3175H469.118C470.634 71.3175 471.737 70.95 472.426 70.2148C473.069 69.4796 473.391 68.3998 473.391 66.9754V56.3612C473.391 53.6503 473.988 51.6515 475.183 50.3649C476.377 49.0784 478.146 48.3202 480.49 48.0905V47.1255C478.146 46.9417 476.377 46.2066 475.183 44.92C473.988 43.6334 473.391 41.6347 473.391 38.9237V27.9649C473.391 26.5865 473.069 25.5296 472.426 24.7945C471.737 24.0133 470.634 23.6228 469.118 23.6228H467.394V14.456H469.118Z" fill="url(#paint1_linear_43_7)"/>
<defs>
<linearGradient id="paint0_linear_43_7" x1="14" y1="0" x2="14" y2="87" gradientUnits="userSpaceOnUse">
<stop stop-color="#1979E8"/>
<stop offset="1" stop-color="#0B92DF"/>
</linearGradient>
<linearGradient id="paint1_linear_43_7" x1="478" y1="94" x2="478" y2="7" gradientUnits="userSpaceOnUse">
<stop stop-color="#1979E8"/>
<stop offset="1" stop-color="#0B92DF"/>
</linearGradient>
</defs>
</svg>
