<svg width="37" height="37" viewBox="0 0 37 37" fill="none" xmlns="http://www.w3.org/2000/svg">
<path d="M18.1814 0.121887C8.25539 0.121887 0.204956 8.50092 0.204956 18.8355C0.204956 27.1038 5.3552 34.1183 12.4993 36.5932C13.3966 36.7663 13.6873 36.1862 13.6873 35.6934V32.2095C8.68682 33.3417 7.64569 30.0013 7.64569 30.0013C6.82776 27.8383 5.64881 27.2629 5.64881 27.2629C4.01745 26.1011 5.77315 26.126 5.77315 26.126C7.57828 26.257 8.52803 28.0551 8.52803 28.0551C10.1309 30.9152 12.733 30.0887 13.7592 29.6099C13.9195 28.4013 14.3853 27.5748 14.9007 27.1085C10.9084 26.6329 6.71092 25.0282 6.71092 17.8593C6.71092 15.8148 7.4135 14.1462 8.56249 12.8362C8.37673 12.3637 7.76104 10.4596 8.73776 7.88337C8.73776 7.88337 10.2478 7.38122 13.6828 9.80151C15.1164 9.38669 16.6534 9.17929 18.1814 9.17149C19.7094 9.17929 21.2478 9.38669 22.6845 9.80151C26.1165 7.38122 27.6235 7.88337 27.6235 7.88337C28.6017 10.4612 27.986 12.3653 27.8002 12.8362C28.9537 14.1462 29.6503 15.8164 29.6503 17.8593C29.6503 25.0469 25.4453 26.6297 21.4426 27.0929C22.0867 27.673 22.6755 28.8114 22.6755 30.5581V35.6934C22.6755 36.1909 22.9631 36.7757 23.8754 36.5916C31.0135 34.1136 36.1578 27.1007 36.1578 18.8355C36.1578 8.50092 28.1088 0.121887 18.1814 0.121887Z" fill="white"/>
</svg>
