<svg width="38" height="37" viewBox="0 0 38 37" fill="none" xmlns="http://www.w3.org/2000/svg">
<path d="M0.764648 4.26894C0.764648 3.03154 1.17447 2.01071 1.99408 1.20644C2.81369 0.402134 3.87923 0 5.19061 0C6.4786 0 7.52067 0.395935 8.31689 1.18788C9.1365 2.00455 9.54632 3.06866 9.54632 4.3803C9.54632 5.56818 9.14823 6.55806 8.35202 7.35C7.53241 8.16667 6.45517 8.575 5.12036 8.575H5.08523C3.79724 8.575 2.75517 8.16667 1.95896 7.35C1.16274 6.53333 0.764648 5.5063 0.764648 4.26894ZM1.2213 36.75V11.953H9.01942V36.75H1.2213ZM13.34 36.75H21.1381V22.9038C21.1381 22.0376 21.2318 21.3694 21.4191 20.8992C21.747 20.0578 22.2446 19.3463 22.912 18.7648C23.5794 18.1832 24.4166 17.8924 25.4236 17.8924C28.0464 17.8924 29.3578 19.7608 29.3578 23.4977V36.75H37.1559V22.5326C37.1559 18.8699 36.3363 16.092 34.697 14.1989C33.0578 12.3057 30.8917 11.3591 28.1986 11.3591C25.1777 11.3591 22.8242 12.7326 21.1381 15.4795V15.5538H21.103L21.1381 15.4795V11.953H13.34C13.3868 12.7449 13.4103 15.2073 13.4103 19.3402C13.4103 23.473 13.3868 29.2762 13.34 36.75Z" fill="white"/>
</svg>
